<?xml version="1.0" standalone="no"?><!DOCTYPE svg PUBLIC "-//W3C//DTD SVG 1.1//EN" "http://www.w3.org/Graphics/SVG/1.1/DTD/svg11.dtd"><svg t="1592212705142" class="icon" viewBox="0 0 1024 1024" version="1.1" xmlns="http://www.w3.org/2000/svg" p-id="2663" xmlns:xlink="http://www.w3.org/1999/xlink" width="16" height="16"><defs><style type="text/css"></style></defs><path d="M858.4 505.1c-28.7 0-20.1 21.9-20.1 48.8 0 152.6-164.3 308.6-326.9 308.6-162.7 0-326.9-156.1-326.9-308.6 0-152.6 164.3-308.6 326.9-308.6h0.1v81.4l208.2-130.2-208.2-98.3v81.4h-0.1c-220.1 0-399.1 167.9-399.1 374.3 0 206.5 179.1 374.4 399.1 374.4 220.1 0 399.1-167.9 399.1-374.4 0-26.9-23.3-48.8-52.1-48.8z" p-id="2664" fill="#efb336"></path></svg>